PathFileType	4	(X/Y/Z)	/Users/niels/Desktop/University/Third Semester/Perception and Action/Exam/Gymnastics Motion Tracking/Code for Gym Tracking/Analyzed Data/Webcam_Backflip/id6_1_baseline_Sports2D/id6_1_baseline_Sports2D_px_person00.trc
DataRate	CameraRate	NumFrames	NumMarkers	Units	OrigDataRate	OrigDataStartFrame	OrigNumFrames
29.702970297029704	29.702970297029704	12	22	m	29.702970297029704	0	101
Frame#	Time	Hip			RHip			RKnee			RAnkle			RBigToe			RSmallToe			RHeel			LHip			LKnee			LAnkle			LBigToe			LSmallToe			LHeel			Neck			Head			Nose			RShoulder			RElbow			RWrist			LShoulder			LElbow			LWrist		
		X1	Y1	Z1	X2	Y2	Z2	X3	Y3	Z3	X4	Y4	Z4	X5	Y5	Z5	X6	Y6	Z6	X7	Y7	Z7	X8	Y8	Z8	X9	Y9	Z9	X10	Y10	Z10	X11	Y11	Z11	X12	Y12	Z12	X13	Y13	Z13	X14	Y14	Z14	X15	Y15	Z15	X16	Y16	Z16	X17	Y17	Z17	X18	Y18	Z18	X19	Y19	Z19	X20	Y20	Z20	X21	Y21	Z21	X22	Y22	Z22
0	0.0	0.9344637151425964	-0.7143693958073295	0.0	0.9287354645686923	-0.7200994880743903	0.0	0.9363624389944621	-0.9701305571029191	0.0	0.913457331733479	-1.0865350635503912	0.0	0.9731517588170867	-1.0899187237580135	0.0	0.9544310582478841	-1.1489583154916765	0.0	0.8867490568851923	-1.0922717630648742	0.0	0.957373009988232	-0.7220145728166428	0.0	0.9383081328713357	-0.9701291240863172	0.0	0.9249291044555253	-1.0846180662136367	0.0	0.9465472464184845	-1.0917965433821841	0.0	0.9739205989862819	-1.0659277830496237	0.0	0.8733900536603272	-1.0750559727338866	0.0	0.9478158121825979	-0.39182594719332353	0.0	0.9898108481527443	-0.2601456359713373	0.0	1.0050743720739344	-0.3441093763676484	0.0	0.9134431275584691	-0.42235720905394936	0.0	0.9706797730117862	-0.5444765670768815	0.0	1.0984656285201717	-0.48521644745687936	0.0	0.9554778752004325	-0.43574388609685455	0.0	0.9860625270736654	-0.5578338378313494	0.0	1.087545004260635	-0.4646659097710035	0.0
1	0.033666666666666664	0.930593361480334	-0.7123579603969502	0.0	0.925529827316154	-0.7179505650106	0.0	0.9351960468787287	-0.9666859346462721	0.0	0.9131788697692662	-1.087535542224913	0.0	0.9731517589835011	-1.089918723712533	0.0	0.9544310582478841	-1.1489583154916765	0.0	0.887413220338388	-1.09390987562918	0.0	0.9525716843077977	-0.7194970020936463	0.0	0.935930119009239	-0.967752289484357	0.0	0.9235747900829913	-1.0834190693748769	0.0	0.9581467937911626	-1.0882601250359234	0.0	0.9777252840762584	-1.0708969141293447	0.0	0.8727960124128371	-1.0761605223111725	0.0	0.9490831076515457	-0.3917009871840091	0.0	0.9900512645911488	-0.25918065563278925	0.0	1.00499632080644	-0.3422807391692984	0.0	0.9147487341609466	-0.4240763578617183	0.0	0.9637359821841331	-0.5520031057286143	0.0	1.0993597261930692	-0.5097715144589916	0.0	0.9571092849078716	-0.43623884928481715	0.0	0.9844076965702909	-0.5614979191962484	0.0	1.0831749106222328	-0.4975217519915707	0.0
2	0.06733333333333333	0.9268318336064323	-0.7113712146416538	0.0	0.9223143583957737	-0.7167294365850891	0.0	0.933809395478852	-0.9644028200785166	0.0	0.9125779077926689	-1.0887858750342838	0.0	0.9731517591822477	-1.0899187232061585	0.0	0.9544310582478841	-1.1489583154916765	0.0	0.887572417567823	-1.0954511738174766	0.0	0.9484217854012853	-0.7180618374040187	0.0	0.9342962559622833	-0.966120065182042	0.0	0.9224941697521882	-1.0827870880626844	0.0	0.9695366200833044	-1.084674212794304	0.0	0.9822741857209035	-1.0754465614835655	0.0	0.8724584861328807	-1.0776041297422487	0.0	0.9503500117244129	-0.3918358223502393	0.0	0.9905034931576084	-0.258505795374792	0.0	1.0053094562330411	-0.3408390661230738	0.0	0.9157525720860954	-0.4258463284143364	0.0	0.9566117165589343	-0.5607829758490407	0.0	1.0979339617774944	-0.5376404834739835	0.0	0.9585495438336274	-0.4370885741053922	0.0	0.9820252852028274	-0.5662226102045679	0.0	1.0766978220684944	-0.531486089329725	0.0
3	0.10099999999999999	0.9233449250422662	-0.712071889422418	0.0	0.9192376872448303	-0.7170341596054436	0.0	0.9320833444798217	-0.9639141548999858	0.0	0.9115449091550876	-1.090439575600403	0.0	0.9731517593294103	-1.0899187219142652	0.0	0.9544310582478841	-1.1489583154916765	0.0	0.8868808585487163	-1.0969394167092845	0.0	0.945236978781348	-0.7183811550822268	0.0	0.9334311758150596	-0.9656924283290967	0.0	0.9215696672535995	-1.08310510170392	0.0	0.9803429026396755	-1.0810302470137096	0.0	0.9879575260198331	-1.0791285185518034	0.0	0.872493873583278	-1.0794140299895767	0.0	0.9515242720628196	-0.3923430563352007	0.0	0.9913040508074831	-0.2582895833159594	0.0	1.0061796005520616	-0.3400204645549564	0.0	0.9162270506896766	-0.4276627091994089	0.0	0.9490477335100964	-0.5712187477941265	0.0	1.0917535707974182	-0.5705893147263975	0.0	0.9595908260275757	-0.4383731743698794	0.0	0.9785692658602488	-0.5724964594158904	0.0	1.0668321307766764	-0.5669674644750986	0.0
4	0.13466666666666666	0.92042759718789	-0.7146188916692404	0.0	0.916573854456195	-0.719032861977137	0.0	0.9300510447793496	-0.9651291513641239	0.0	0.9101335244217386	-1.0923986639798842	0.0	0.973151759255422	-1.0899187195639002	0.0	0.9544310582478841	-1.1489583154916765	0.0	0.8852634544389993	-1.0985057693528257	0.0	0.9430355132238892	-0.7205914496061407	0.0	0.9327980625780097	-0.9664676231659245	0.0	0.9204818541071328	-1.0844004339118367	0.0	0.989971943382186	-1.0773830674225888	0.0	0.9944364978589669	-1.081501324396172	0.0	0.8729602039235163	-1.081247355638173	0.0	0.9524472825290975	-0.3931662605063863	0.0	0.9924367152617273	-0.2585567968058109	0.0	1.0074503331026254	-0.33983729167843546	0.0	0.9159657218790482	-0.4294569892928781	0.0	0.9407660071521792	-0.5826647969696923	0.0	1.0789553556054197	-0.6081986239057522	0.0	0.9601007892212257	-0.43990989771604144	0.0	0.9741948435067784	-0.58002464609655	0.0	1.054098828459532	-0.6031023299706991	0.0
5	0.16833333333333333	0.9184455553070233	-0.71869634352873	0.0	0.9145900278746086	-0.7224816262688525	0.0	0.9278613502630007	-0.96738864226395	0.0	0.9084413415069127	-1.0942650023413454	0.0	0.9731517586940631	-1.0899187161856962	0.0	0.9544310582478841	-1.1489583154916765	0.0	0.8829974627866294	-1.1000536420406049	0.0	0.9418244144960748	-0.7242909439112154	0.0	0.9319817536304075	-0.9679698973833272	0.0	0.919088269359798	-1.0862541245705182	0.0	0.997651420715347	-1.0738875674314847	0.0	1.0004001057779734	-1.0822935756689207	0.0	0.8739081672086518	-1.0826243327978422	0.0	0.9530306495291029	-0.3941394344392152	0.0	0.9937556674938479	-0.2592515681825441	0.0	1.0087931450579675	-0.34013187420489455	0.0	0.9148571222524242	-0.43109638934655425	0.0	0.9312665479055152	-0.593628832403776	0.0	1.0584732822722913	-0.6479040123008964	0.0	0.9601455314711842	-0.4414779018706203	0.0	0.9695516988889259	-0.5878640774883621	0.0	1.0415155960330382	-0.6369951043379548	0.0
6	0.20199999999999999	0.91771792454234	-0.7236066511164729	0.0	0.9134765173268143	-0.7267611963930602	0.0	0.9257032441628963	-0.9698687214460305	0.0	0.906607637056103	-1.0955607621589387	0.0	0.9731517573189863	-1.0899187125256904	0.0	0.9544310582478841	-1.1489583154916765	0.0	0.8806265062715519	-1.1011379293644759	0.0	0.9417061389192938	-0.7286607865829202	0.0	0.9310860189305598	-0.9695438300102157	0.0	0.9175441926198583	-1.0879616739644438	0.0	1.0026950161393084	-1.0708270923003866	0.0	1.0041692518528138	-1.0816135634398027	0.0	0.8752356004830135	-1.0832348266591363	0.0	0.9533631909946575	-0.39505612351450997	0.0	0.9951124503113761	-0.26026907442131914	0.0	1.0099459998664293	-0.3406953965626931	0.0	0.9130255032014849	-0.4323707758836379	0.0	0.9196964197924595	-0.6021796598987059	0.0	1.0297923511535587	-0.6854833034797164	0.0	0.9600542450461075	-0.44303926261637727	0.0	0.9655984926264867	-0.594851411594423	0.0	1.0333710161633392	-0.6637431638170478	0.0
7	0.23566666666666664	0.9184076172928703	-0.7283307777050424	0.0	0.9133346880480485	-0.7308684674266782	0.0	0.9238047618114171	-0.9719050096478116	0.0	0.904842291575889	-1.095979601794286	0.0	0.9731517548714977	-1.0899187105753312	0.0	0.9544310582478841	-1.1489583154916765	0.0	0.8786766255809129	-1.101291825029125	0.0	0.9427277365592929	-0.732623387126638	0.0	0.9304713108517033	-0.9706476500482599	0.0	0.9161219815807079	-1.088874348279783	0.0	1.0049297246923006	-1.068547287537319	0.0	1.0048933543168352	-1.0799715692493281	0.0	0.8766708878676103	-1.0830279048575657	0.0	0.953669758415432	-0.39575250994717065	0.0	0.9964708652238344	-0.26141276649716944	0.0	1.0108269581241152	-0.34134055741615527	0.0	0.9107966668154759	-0.4330526479444831	0.0	0.9052843688252858	-0.6065361784513904	0.0	0.9928795036310558	-0.7161470908890064	0.0	0.9603432187811374	-0.444771044091269	0.0	0.9633504525126656	-0.6001850039164619	0.0	1.0326114432051532	-0.6783398331536259	0.0
8	0.2693333333333333	0.9202885869477613	-0.7317210022945125	0.0	0.91408406909644	-0.7335870490835329	0.0	0.9224150054177939	-0.973020018646304	0.0	0.9033700467635395	-1.095423249575679	0.0	0.9731517514258842	-1.0899187140413626	0.0	0.9544310582478841	-1.1489583154916765	0.0	0.8774324136362158	-1.1003284524434764	0.0	0.944654875000942	-0.7350248193388705	0.0	0.9302160021597513	-0.9708368502469367	0.0	0.9149362645975442	-1.0886380916976763	0.0	1.0048767030053816	-1.0672256863598044	0.0	1.0029991589796805	-1.0780022050858196	0.0	0.8779662426756455	-1.0820771833956362	0.0	0.9541291675630064	-0.39617292867994247	0.0	0.9978718337331005	-0.2624041897051388	0.0	1.0115008915749746	-0.34191223676518095	0.0	0.9085796845412536	-0.43302030601762725	0.0	0.8881023052954422	-0.6057326543657148	0.0	0.9488282839001584	-0.7361196897479448	0.0	0.9614057323057551	-0.4468338669188725	0.0	0.963617876764542	-0.6037051546472366	0.0	1.0392808338098563	-0.6785988020427995	0.0
9	0.303	0.9225857258689933	-0.7329398933978688	0.0	0.9152853268204076	-0.7340184963937948	0.0	0.9216226760317776	-0.9729711273074441	0.0	0.9022762070233858	-1.0939607613554316	0.0	0.9731517478145111	-1.089918728362929	0.0	0.9544310582478841	-1.1489583154916765	0.0	0.8768387536341008	-1.0983548175374933	0.0	0.946896472401725	-0.7350572891394178	0.0	0.9300246028494994	-0.9698231881252671	0.0	0.9138008293306192	-1.0872412806122123	0.0	1.003496488807052	-1.0666730162844313	0.0	0.9996193081613942	-1.0761226849510772	0.0	0.8788993641593374	-1.080465593866109	0.0	0.9547115752533862	-0.3963580513338189	0.0	0.999279090734995	-0.2630035262650227	0.0	1.012037234809329	-0.3422881590633203	0.0	0.9067098212492336	-0.4322868053034308	0.0	0.8691870229265092	-0.5999283390161129	0.0	0.9003266980320561	-0.7437511579392382	0.0	0.9632680902735633	-0.44918850169303454	0.0	0.9668685623724527	-0.605660870057168	0.0	1.0508561830118843	-0.6663961153508351	0.0
10	0.33666666666666667	0.9243486323662966	-0.7319194921550587	0.0	0.9162264548240053	-0.7321665844635955	0.0	0.9211969056868311	-0.9719767273061338	0.0	0.9013894888854902	-1.0918827312334944	0.0	0.973151746162106	-1.089918759620656	0.0	0.9544310582478841	-1.1489583154916765	0.0	0.8765518138591114	-1.0957909786706281	0.0	0.9487866510198134	-0.7328278030724177	0.0	0.9296828360304485	-0.9678234825749364	0.0	0.9123972724845648	-1.0849926584893577	0.0	1.0018226892354865	-1.0664316522406072	0.0	0.9958044459705477	-1.0744026030135974	0.0	0.8791719425888022	-1.0782883915566308	0.0	0.9552023207523521	-0.3963670889876666	0.0	1.000516591341274	-0.26313559849616497	0.0	1.012361589211816	-0.34237433399153566	0.0	0.9051635090974168	-0.43096990016925546	0.0	0.8499534544285764	-0.5902959654596426	0.0	0.8510345840493115	-0.7396457247172193	0.0	0.9657235105496977	-0.4517071863051679	0.0	0.9731824237179886	-0.6062556331717598	0.0	1.063834993961313	-0.646199287269308	0.0
11	0.3703333333333333	0.9251224581656101	-0.7293619456245927	0.0	0.9163479397933548	-0.7289208727972804	0.0	0.9207488068436978	-0.9706229432908373	0.0	0.9004247316833403	-1.0896328957535193	0.0	0.9731517503353124	-1.0899188114746374	0.0	0.9544310582478841	-1.1489583154916765	0.0	0.8762592036625981	-1.0932340691187368	0.0	0.949988573766161	-0.7293605788727543	0.0	0.9293328418724378	-0.965568854493507	0.0	0.9106020167284584	-1.0823673295795657	0.0	1.0006068100280667	-1.0661203659499439	0.0	0.9918011038393518	-1.0726974254958057	0.0	0.8785647293253788	-1.0756772333588254	0.0	0.9554600991445565	-0.3962370161844956	0.0	1.0014315082519347	-0.2628839942834951	0.0	1.0122985813861207	-0.3421297789968444	0.0	0.903528666649083	-0.42927920895135857	0.0	0.8316658628954339	-0.578612843565313	0.0	0.8044553941269706	-0.7261255173133003	0.0	0.9686750295223172	-0.4543461443912992	0.0	0.9821101981017255	-0.6055130147230829	0.0	1.0754942348912406	-0.6226694135965958	0.0
